<?xml version="1.0" encoding="UTF-8" standalone="no"?>
<!-- Created with Inkscape (http://www.inkscape.org/) -->

<svg
   xmlns:svg="http://www.w3.org/2000/svg"
   xmlns="http://www.w3.org/2000/svg"
   version="1.0"
   width="59.828194"
   height="65.220009"
   viewBox="0 0 59.828192 65.220011"
   id="Layer_1"
   xml:space="preserve"><defs
   id="defs2841" />










<path
   d="m 52.530094,16.952902 c -11.232,-15.2910001 -30.588,-21.6940001 -42.288,-13.1040001 -0.8989999,0.662 -1.7059999,1.408 -2.4759999,2.191 -0.227,0.221 -0.437,0.448 -0.651,0.675 -0.173,0.163 -0.332,0.342 -0.498,0.512 l -0.092,0.105 c -9.19,9.5970001 -8.783,28.5270001 1.923,42.3830001 8.2169999,10.631 20.7509999,17.129 33.8909999,15.152 l 0.17,-0.024 c 0.817,-0.125 1.156,-2.201 0.987,-3.588 -0.031,-0.4 -0.139,-0.885 -0.316,-1.109 h -0.017 c -0.088,-0.247 -0.179,-0.488 -0.277,-0.708 -0.947,-2.096 -2.554,-5.85 -3.538,-8.187 -0.278,-0.654 -0.508,-0.881 -1.01,-0.82 -7.061,0.898 -16.505,-3.317 -22.789,-11.49 -5.266,-6.853 -7.3889999,-14.84 -6.3409999,-21.432 0.9419999,-3.985 2.8649999,-7.413 5.7509999,-9.6280001 8.169,-6.28 21.252,-2.713 29.802,8.4110001 8.634,11.241 8.261,21.506 2.364,29.893 l -0.024,0.044 -0.017,0.01 c -0.265,0.407 -1.028,1.668 -1.221,2.001 -0.39,0.563 -0.299,1.038 -0.146,1.387 2.648,6.586 4.629,12.069 5.182,12.052 0.207,-0.01 0.403,-0.129 0.597,-0.288 0.21,-0.061 0.444,-0.193 0.708,-0.458 4.575,-4.571 7.298,-11.632 7.515,-19.336 0.638,-7.99 -1.492,-16.889 -7.189,-24.644 m -10.109,-1.699 -0.01,-0.007 c -7.634,-9.0540001 -19.286,-11.8010001 -26.024,-6.1210001 -6.4949999,5.4670001 -6.125,16.8310001 0.82,25.6850001 3.303,4.402 7.322,7.033 10.822,8.597 4.364,2.048 7.803,2.407 7.945,2.363 l 0.105,-0.132 0.051,-0.139 0.007,-0.021 0.03,-0.108 c 0.112,-0.682 0.061,-0.882 0.065,-0.875 -0.004,-0.322 -0.037,-0.634 -0.109,-0.828 -0.732,-1.96 -3.204,-7.297 -3.686,-8.603 -0.339,-0.919 -0.844,-2.272 -1.112,-2.32 -0.383,-0.067 -1.068,-0.159 -1.601,-0.386 -0.268,-0.119 -0.569,-0.234 -0.919,-0.353 -2.231,-0.776 -4.235,-1.936 -6.453,-4.374 -4.68,-5.151 -5.402,-12.117 -1.621,-15.549 3.781,-3.4350001 10.512,-1.862 15.175,2.947 0.957,0.983 1.73,2.042 2.354,3.144 0.074,0.132 0.156,0.261 0.227,0.4 0.275,0.515 0.509,1.041 0.705,1.577 0.038,0.098 0.068,0.2 0.102,0.302 1.048,3.069 0.879,6.385 -0.715,9.559 -0.075,0.153 -0.445,0.882 -0.526,1.133 v 0.088 c -0.037,0.166 -0.027,0.312 0.02,0.431 1.34,3.323 4.914,11.513 5.196,11.503 l 0.044,-0.017 0.098,0.051 c 0.427,0.064 1.275,-0.98 1.36,-1.096 5.212,-6.579 4.883,-18.261 -2.35,-26.851 z"
   id="path2837"
   style="fill:#00ff00" />
</svg>
